# xmcd
#
# Track frame offsets:
#	150
#	18735
#	42733
#	75332
#	86121
#	103746
#	135126
#	158634
#	179476
#	206485
#	226122
#	247886
#	271159
#	292628
#
# Disc length: 4128
#
# Revision: 2
# Processed by: cddbd v1.5.1PL0 Copyright (c) Steve Scherf et al.
# Submitted via: EasyCDDAExtractor 6.2.0.3
# Normalized: r1:DSETVAR1
#
DISCID=ab101e0e
DTITLE=Various Artist - Music 2 Drive By - Vol. II
DYEAR=1900
DGENRE=
TTITLE0=The Isley Brothers - Take A Ride
TTITLE1=David Peaston - Take Me Now
TTITLE2=The Temptations - This Is My Promise
TTITLE3=Curtis Mayfield and the Impressions - Never Let Me Go
TTITLE4=Freddie Jackson - Rock Me Tonight
TTITLE5=Luther Vandross - A House is Not a Home
TTITLE6=J. Blackfoot - Just One Lifetime
TTITLE7=Patti Labelle - If Only You Knew
TTITLE8=The O'Jays - Forever Mine
TTITLE9=Maxwell - A Woman's Work
TTITLE10=The Temptations - Lady Soul
TTITLE11=Johnny Gill - My, My, My
TTITLE12=Melba Moore feat. Freddie Jackson - A Little Bit More
TTITLE13=Ashford And Simpson - Is It Still Good To Ya
EXTD=
EXTT0=
EXTT1=
EXTT2=
EXTT3=
EXTT4=
EXTT5=
EXTT6=
EXTT7=
EXTT8=
EXTT9=
EXTT10=
EXTT11=
EXTT12=
EXTT13=
PLAYORDER=
